<?xml version="1.0" encoding="utf-8"?>
<!-- Generator: Adobe Illustrator 18.0.0, SVG Export Plug-In . SVG Version: 6.00 Build 0)  -->
<!DOCTYPE svg PUBLIC "-//W3C//DTD SVG 1.1//EN" "http://www.w3.org/Graphics/SVG/1.1/DTD/svg11.dtd">
<svg version="1.1" id="Calque_1" xmlns="http://www.w3.org/2000/svg" xmlns:xlink="http://www.w3.org/1999/xlink" x="0px" y="0px"
	 viewBox="0 0 64 64" enable-background="new 0 0 64 64" xml:space="preserve">
<g>
	<g>
		<path fill="#FFFFFF" d="M35.6,0.2c9.3,0,18.6,0,27.9,0c0.6,0,0.7,0.1,0.7,0.7c0,9.3,0,18.6,0,27.9c-0.7-0.2-0.6-1-0.6-1.5
			c-0.4-2.6-1.1-5-2.1-7.4c-3.8-8.6-10-14.5-18.8-17.7c-1.8-0.7-3.7-1.1-5.7-1.4C36.5,0.7,35.8,0.9,35.6,0.2z"/>
		<path fill="#FFFFFF" d="M0.2,28.6c0-9.2,0-18.4,0-27.6c0-0.6,0.1-0.8,0.8-0.8c9.3,0,18.6,0,27.8,0c-0.2,0.7-1,0.6-1.5,0.6
			c-2.6,0.4-5.1,1.1-7.5,2.1C11.3,6.7,5.4,13,2.2,21.8c-0.7,1.8-1.1,3.7-1.4,5.6C0.8,27.8,0.9,28.4,0.2,28.6z"/>
		<path fill="#FFFFFF" d="M64.2,35.8c0,9.2,0,18.4,0,27.6c0,0.6-0.1,0.8-0.8,0.8c-9.3,0-18.6,0-27.8,0c0.2-0.7,1-0.6,1.5-0.6
			c2.6-0.4,5.1-1.1,7.5-2.1c8.5-3.8,14.4-10,17.6-18.8c0.7-1.8,1.1-3.7,1.4-5.6C63.6,36.6,63.6,36,64.2,35.8z"/>
		<path fill="#FFFFFF" d="M28.6,64.2c-9.2,0-18.4,0-27.6,0c-0.6,0-0.8-0.1-0.8-0.8c0-9.2,0-18.4,0-27.6c0.7,0.2,0.6,0.8,0.7,1.3
			c0.6,4,2,7.8,4.1,11.3c5.2,8.3,12.5,13.4,22.2,15.1C27.7,63.6,28.4,63.5,28.6,64.2z"/>
		<path fill="#596886" d="M28.6,64.2c-0.3-0.4-0.8-0.3-1.2-0.4C13.5,61.7,2.7,50.9,0.6,37c-0.1-0.4,0.1-0.9-0.4-1.2
			c0-0.3,0-0.5,0-0.8c0.1-0.1,0.1-0.3,0.1-0.4c0-0.1,0-0.3-0.1-0.4c0-1.3,0-2.6,0-3.9c0.1-0.1,0.1-0.3,0.1-0.4c0-0.1,0-0.3-0.1-0.4
			c0-0.3,0-0.5,0-0.8c0.4-0.2,0.3-0.7,0.3-1C3,13,13.5,2.7,28.1,0.4c0.2,0,0.6,0.1,0.7-0.2c0.2,0,0.4,0,0.6,0
			c0.1,0.1,0.3,0.1,0.4,0.1c0.1,0,0.3,0,0.4-0.1c1.3,0,2.6,0,3.9,0c0.1,0.1,0.3,0.1,0.4,0.1c0.1,0,0.3,0,0.4-0.1c0.2,0,0.4,0,0.6,0
			c0.7,0.5,1.6,0.4,2.3,0.5c13.9,2.7,23.9,13.2,26,27.4c0,0.2-0.1,0.6,0.2,0.7c0,0.2,0,0.4,0,0.6c-0.1,0.1-0.1,0.3-0.1,0.4
			c0,0.1,0,0.3,0.1,0.4c0,1.3,0,2.6,0,3.9c-0.1,0.1-0.1,0.3-0.1,0.4c0,0.1,0,0.3,0.1,0.4c0,0.3,0,0.5,0,0.8c-0.4,0.2-0.3,0.7-0.3,1
			C61.4,51.4,51,61.7,36.3,64c-0.2,0-0.6-0.1-0.7,0.2c-0.2,0-0.4,0-0.6,0c-0.1-0.1-0.3-0.1-0.4-0.1c-0.1,0-0.3,0-0.4,0.1
			c-1.3,0-2.6,0-3.9,0c-0.1-0.1-0.3-0.1-0.4-0.1c-0.1,0-0.3,0-0.4,0.1C29.2,64.2,28.9,64.2,28.6,64.2z"/>
		<path fill="#8B90A7" d="M0.4,29.8c0,0.2,0,0.3-0.2,0.4c0-0.1,0-0.3,0-0.4C0.3,29.7,0.3,29.7,0.4,29.8z"/>
		<path fill="#8B90A7" d="M64.2,30.3C64,30.2,64,30,64,29.8c0.1-0.1,0.1-0.1,0.2,0C64.2,30,64.2,30.1,64.2,30.3z"/>
		<path fill="#A0A3B6" d="M0.4,29.8c-0.1,0-0.1,0-0.2,0c0-0.1,0-0.3,0-0.4C0.4,29.5,0.4,29.7,0.4,29.8z"/>
		<path fill="#A0A3B6" d="M64.2,29.8c-0.1,0-0.1,0-0.2,0c0-0.2,0-0.3,0.2-0.4C64.2,29.6,64.2,29.7,64.2,29.8z"/>
		<path fill="#A0A3B6" d="M0.4,34.6c0,0.2,0,0.3-0.2,0.4c0-0.1,0-0.3,0-0.4C0.3,34.5,0.3,34.5,0.4,34.6z"/>
		<path fill="#A0A3B6" d="M35,0.2c-0.1,0.2-0.2,0.2-0.4,0.2c-0.1,0-0.1-0.1-0.1-0.1c0,0,0-0.1,0.1-0.1C34.7,0.2,34.8,0.2,35,0.2z"/>
		<path fill="#8B90A7" d="M34.6,0.2c0,0.1,0,0.1,0,0.2c-0.2,0-0.3,0-0.4-0.2C34.3,0.2,34.4,0.2,34.6,0.2z"/>
		<path fill="#8B90A7" d="M30.3,0.2c-0.1,0.2-0.2,0.2-0.4,0.2c-0.1,0-0.1-0.1-0.1-0.1c0,0,0-0.1,0.1-0.1C30,0.2,30.1,0.2,30.3,0.2z"
			/>
		<path fill="#A0A3B6" d="M29.8,0.2c0,0.1,0,0.1,0,0.2c-0.2,0-0.3,0-0.4-0.2C29.6,0.2,29.7,0.2,29.8,0.2z"/>
		<path fill="#A0A3B6" d="M64.2,35C64,34.9,64,34.8,64,34.6c0.1-0.1,0.1-0.1,0.2,0C64.2,34.7,64.2,34.8,64.2,35z"/>
		<path fill="#8B90A7" d="M64.2,34.6c-0.1,0-0.1,0-0.2,0c0-0.2,0-0.3,0.2-0.4C64.2,34.3,64.2,34.4,64.2,34.6z"/>
		<path fill="#8B90A7" d="M0.4,34.6c-0.1,0-0.1,0-0.2,0c0-0.1,0-0.3,0-0.4C0.4,34.3,0.4,34.4,0.4,34.6z"/>
		<path fill="#A0A3B6" d="M29.4,64.2c0.1-0.2,0.2-0.2,0.4-0.2c0.1,0,0.1,0.1,0.1,0.1c0,0,0,0.1-0.1,0.1
			C29.7,64.2,29.6,64.2,29.4,64.2z"/>
		<path fill="#8B90A7" d="M29.8,64.2c0-0.1,0-0.1,0-0.2c0.2,0,0.3,0,0.4,0.2C30.1,64.2,30,64.2,29.8,64.2z"/>
		<path fill="#8B90A7" d="M34.2,64.2c0.1-0.2,0.2-0.2,0.4-0.2c0.1,0,0.1,0.1,0.1,0.1c0,0,0,0.1-0.1,0.1
			C34.4,64.2,34.3,64.2,34.2,64.2z"/>
		<path fill="#A0A3B6" d="M34.6,64.2c0-0.1,0-0.1,0-0.2c0.2,0,0.3,0,0.4,0.2C34.8,64.2,34.7,64.2,34.6,64.2z"/>
		<path fill="#474747" d="M33.6,63.4c-8,0.3-15.1-2.1-21.3-7.2c-6-5-9.6-11.4-10.9-19.1c-1.3-8,0.3-15.3,4.8-22
			C10.9,7.9,17.6,3.4,26,1.7C34.3,0,42.2,1.5,49.3,6.2C50.6,7,51.9,7.8,52.9,9c-0.1,0.2-0.3,0.2-0.5,0.3c-0.6,0.1-1.2,0.1-1.8,0
			c-0.9-0.2-1.7-0.1-2.6-0.1c-0.2,0-0.5,0-0.7,0c-0.3,0-0.7,0-1,0c-0.6,0-1.2-0.1-1.8,0.1c-0.3,0.1-0.6,0.1-0.9,0.2
			c-0.2,0-0.3,0-0.5,0c-2.6-1.3-5.4-2-8.3-2.4c-4.3-0.5-8.4,0.2-12.4,1.8c-3,1.2-5.7,3-8,5.3c-4.1,4.2-6.6,9.2-7.4,15
			c-0.6,5,0.2,9.7,2.4,14.2c2.2,4.4,5.3,8,9.6,10.4c3.3,2,6.9,3.2,10.8,3.6c1.2,0.1,2.5-0.1,3.7,0.4c0.2,0.2,0.2,0.4,0.2,0.6
			c0,0.3,0,0.7,0,1c0,0.3,0,0.7,0,1c0,0.3,0,0.7,0,1c0,0.3,0,0.7,0,1C33.8,62.9,33.8,63.1,33.6,63.4z"/>
		<path fill="#474747" d="M54.4,10.3c3.1,3.1,5.3,6.7,6.9,10.7c1.7,4.2,2.3,8.7,2,13.2c-0.5,7.1-3.1,13.4-7.9,18.7
			c-3.2,3.7-7.1,6.4-11.6,8.2c-0.2-0.2-0.3-0.5-0.3-0.8c0-0.3,0-0.6,0-0.9c0-0.5,0-0.9,0-1.4c0-0.3,0-0.7,0-1c0-0.4,0-0.8,0-1.2
			c0-0.3,0-0.7,0.2-1c1.6-1.1,3.3-2,4.8-3.3c4.6-4,7.5-9,8.6-15c1-6,0-11.7-3.1-17c-0.2-0.3-0.4-0.6-0.4-1c0.1-0.3,0.5-0.5,0.4-0.9
			c0-0.4,0-0.8,0-1.3c0-0.3,0-0.6,0-0.8c0-0.4,0-0.8,0-1.2c0-0.5,0-1.1,0-1.6c0-0.5,0-1.1,0-1.6C54.1,10.7,54.1,10.5,54.4,10.3z"/>
		<path fill="#A9A9A9" d="M43.8,60.3c0,0.3,0,0.5,0,0.8c-3.3,1.4-6.7,2.1-10.3,2.3c0-0.3,0-0.5,0-0.8c0.5-0.4,1.1-0.3,1.7-0.3
			c2.5-0.3,4.9-0.9,7.3-1.7C42.9,60.4,43.3,60.2,43.8,60.3z"/>
		<path fill="#A7A7A8" d="M54.4,10.3c0,0.2,0,0.4-0.1,0.6c-1-0.2-1.8-0.9-1.8-1.8c0.1,0,0.3,0,0.4,0C53.5,9.3,54,9.8,54.4,10.3z"/>
		<path fill="#494949" d="M18.9,53.9c-1.3-0.5-2.4-1.5-3.5-2.3c-2.6-2-4.4-4.7-5.9-7.5c-1.6-2.9-2.4-6-2.8-9.2
			C6.3,31.1,6.8,27.5,8,24c1.1-3.3,2.9-6.3,5.3-8.9c4.2-4.6,9.4-7.3,15.5-8.2c4.6-0.7,9,0,13.2,1.7c0.4,0.2,0.8,0.4,1.3,0.7
			c-0.2,0.4-0.6,0.3-0.9,0.3c-0.1,0-0.2,0-0.3-0.1c-2.4-1.1-4.9-1.7-7.4-1.9c-3.7-0.3-7.4,0.1-10.9,1.4c-4.1,1.5-7.5,3.9-10.4,7.3
			C9.9,20.1,8,24.6,7.5,29.6C7,35.2,8.1,40.5,11.1,45.3c1.9,3.1,4.3,5.6,7.4,7.6C19.3,53.4,19.2,53.4,18.9,53.9z"/>
		<path fill="#494949" d="M18.9,53.9c0.4-0.5-0.2-0.5-0.3-0.6c-3.7-2.4-6.5-5.5-8.6-9.4c-1.4-2.6-2.2-5.3-2.6-8.1
			c-0.6-4.3-0.2-8.5,1.4-12.5c1.6-4,4-7.4,7.3-10.2c3.4-2.9,7.3-4.7,11.7-5.5c4.7-0.8,9.4-0.4,13.9,1.4C41.8,9,41.9,9.1,42,9.3
			c-0.5,0.4-0.9,0.1-1.3,0c-2.6-1-5.3-1.4-8-1.5c-3.1-0.1-6.1,0.5-9,1.6c-0.1,0-0.2,0.1-0.3,0.1c-0.4,0.1-0.7,0.2-1.1,0.4
			c-0.6,0.4-1.3,0.7-2,1c-0.4,0.1-0.7,0.3-1,0.6c-0.2,0.2-0.4,0.4-0.7,0.5c-0.6,0.2-1.1,0.6-1.5,1.1c-0.1,0.1-0.1,0.1-0.2,0.2
			c-1.4,1-2.6,2.3-3.6,3.6c0,0.1-0.1,0.2-0.2,0.2c-0.5,0.5-0.8,1-1.1,1.5c-0.1,0.2-0.3,0.5-0.4,0.7c-0.3,0.3-0.5,0.7-0.6,1
			c-0.3,0.6-0.7,1.3-1,2c-0.2,0.3-0.3,0.7-0.4,1.1c0,0.1-0.1,0.2-0.1,0.3c-2.1,5.7-2.1,11.5,0,17.2c0,0.1,0.1,0.2,0.1,0.3
			c0.1,0.4,0.2,0.7,0.4,1.1c0.3,0.7,0.7,1.3,1,2c0.2,0.4,0.4,0.7,0.6,1c0.1,0.2,0.2,0.3,0.3,0.5c3.3,5,7.9,8.3,13.6,10
			c2.3,0.7,4.7,1,7.2,1c0.3,0,0.7,0,1,0.2c0.1,0.1,0.2,0.3,0.2,0.5c0,0.2-0.1,0.3-0.2,0.4c-4.9,0.1-9.4-0.9-13.7-3.3
			C19.5,54.4,19.1,54.3,18.9,53.9z"/>
		<path fill="#BCBCBC" d="M42.3,9.3c0.3,0,0.6-0.1,0.9-0.1c0.1,0,0.3,0,0.4,0c2.2,0.9,4.1,2.2,5.8,3.8c1.3,1.2,2.5,2.5,3.6,4
			c0.3,0.4,0.7,0.8,0.5,1.4c-0.2,0.2-0.5,0.2-0.7,0.2c-0.1,0-0.2,0-0.3,0c-0.1,0-0.2-0.1-0.3-0.1c-1-0.9-1.7-2-2.6-3
			c-2.1-2.1-4.5-3.9-7.2-5.1c-0.3-0.1-0.6-0.3-0.8-0.6C41.6,9.2,42.1,9.5,42.3,9.3z"/>
		<path fill="#AFAFB0" d="M43.8,58c0,0.5,0,1,0,1.4c-0.7,0.6-1.6,0.7-2.4,1c-1.8,0.7-3.8,1-5.7,1.3c-0.7,0.1-1.4,0.2-2.1-0.2
			c0-0.3,0-0.7,0-1c0.4-0.3,0.9-0.4,1.3-0.4c2.8-0.2,5.4-1,8-2C43.2,58,43.5,57.8,43.8,58z"/>
		<path fill="#B6B6B7" d="M43.8,55.8c0,0.4,0,0.8,0,1.2c-0.2,0.4-0.6,0.5-1,0.7c-2.6,1.1-5.2,1.7-7.9,2c-0.4,0.1-0.9,0.1-1.3-0.2
			c0-0.3,0-0.7,0-1c0.2-0.4,0.6-0.4,0.9-0.5c2.7-0.2,5.3-0.9,7.7-1.9C42.7,55.9,43.2,55.5,43.8,55.8z"/>
		<path fill="#B6B6B7" d="M54.3,16.3c0,0.5,0,1,0,1.4c-0.5,0.3-0.7-0.1-0.9-0.4c-0.3-0.5-0.7-0.9-1.1-1.3c-1.2-1.4-2.4-2.7-3.8-3.8
			c-0.1-0.1-0.2-0.2-0.3-0.3c-0.2-0.3-0.5-0.5-0.8-0.6c-0.8-0.4-1.5-0.9-2.2-1.4c-0.2-0.2-0.3-0.5-0.6-0.7c-0.1-0.1-0.1-0.1-0.2-0.2
			c0.6-0.3,1.2-0.2,1.9-0.1C49.4,10.8,52.1,13.3,54.3,16.3z"/>
		<path fill="#B3B3B3" d="M33.6,59.5c3.4-0.1,6.6-1,9.7-2.3c0.2-0.1,0.3-0.1,0.5-0.2c0,0.3,0,0.7,0,1c-2.3,1-4.8,1.7-7.3,2.1
			c-1,0.1-1.9,0.2-2.9,0.3C33.6,60.2,33.6,59.8,33.6,59.5z"/>
		<path fill="#ACACAC" d="M33.6,61.5c3.2,0.1,6.2-0.7,9.1-1.8c0.4-0.1,0.7-0.3,1.1-0.2c0,0.3,0,0.6,0,0.8c-3.3,1.4-6.7,2.2-10.2,2.3
			C33.6,62.2,33.6,61.9,33.6,61.5z"/>
		<path fill="#BABABA" d="M43.8,55.8c-2.6,1.1-5.2,2-8,2.4c-0.7,0.1-1.5-0.1-2.2,0.3c0-0.2,0-0.4-0.1-0.6c0-0.1,0-0.3,0.1-0.4
			c0.6-0.5,1.4-0.3,2.1-0.4c2.4-0.4,4.8-1,7-2.1c0.3-0.2,0.7-0.3,1.1-0.3c0.1,0,0.1,0,0.2,0.1C43.8,55.1,43.8,55.4,43.8,55.8z"/>
		<path fill="#AFAFAF" d="M54.3,12.6c0,0.5,0,1.1,0,1.6c-0.5,0.3-0.7-0.1-0.9-0.4c-1.6-1.8-3.3-3.5-5.4-4.7c-0.1,0-0.1-0.1,0-0.2
			c0.9,0,1.8-0.1,2.7,0.1C52,10.1,53.1,11.3,54.3,12.6z"/>
		<path fill="#B4B4B5" d="M54.3,16.3c-0.9-0.3-1.3-1.2-1.8-1.8c-1.6-1.9-3.6-3.5-5.6-4.9c-0.3-0.2-0.5-0.3-0.6-0.7c0.3,0,0.7,0,1,0
			c2.5,1.5,4.6,3.3,6.4,5.6c0.2,0.3,0.4,0.6,0.6,1C54.3,15.7,54.3,16,54.3,16.3z"/>
		<path fill="#B9B9B9" d="M45.3,9.7c0.8,0.5,1.5,1,2.3,1.4c0.3,0.2,0.5,0.4,0.8,0.6c0.1,0.1,0.1,0.1,0.2,0.2
			c1.4,1.2,2.7,2.5,3.9,3.9c0.5,0.3,0.8,0.8,1.1,1.2c0.2,0.3,0.3,0.6,0.7,0.6c0.2,0.5-0.1,0.7-0.6,0.7c-0.1,0-0.2,0-0.2-0.1
			c-2.1-3.6-5.1-6.2-8.6-8.2c-0.4-0.2-0.9-0.5-1.3-0.9C43.8,8.9,44.1,9,44.4,9c0,0,0.1,0,0.1,0C44.8,9.2,45,9.5,45.3,9.7z"/>
		<path fill="#B3B2B3" d="M54.3,15.4C53.9,15,53.4,14.5,53,14c-1.4-1.8-3.2-3.2-5-4.4c-0.2-0.2-0.4-0.4-0.6-0.7c0.2,0,0.4,0,0.6,0
			c1.5,0.4,2.4,1.7,3.5,2.6c0.8,0.7,1.6,1.4,2.2,2.4c0.1,0.2,0.3,0.3,0.6,0.3C54.3,14.6,54.3,15,54.3,15.4z"/>
		<path fill="#ADADAD" d="M54.3,12.6c-0.8-0.2-1.2-0.9-1.7-1.4c-0.7-0.7-1.5-1.2-2-2.1c0.6,0,1.2,0,1.8,0.1c0.3,0.9,1,1.4,1.8,1.8
			C54.3,11.5,54.3,12,54.3,12.6z"/>
		<path fill="#494949" d="M53.5,18.3c0.1,0,0.1,0,0.2,0.1c1.7,2.8,3,5.8,3.6,9c1.2,6.3,0.2,12.2-3.1,17.7c-2.3,4-5.5,7-9.4,9.3
			c-0.3,0.2-0.6,0.3-1,0.3l-0.1,0c-0.2-0.2-0.2-0.5-0.1-0.8c1.2-0.9,2.6-1.7,3.8-2.6c5.1-4.1,8.1-9.5,9-15.9
			c0.8-5.8-0.5-11.1-3.5-16.1c-0.2-0.3-0.4-0.5-0.3-0.9C53,18.3,53.2,18.3,53.5,18.3z"/>
		<path fill="#4B4B4B" d="M42.3,9.3c-0.2,0.1-0.5,0.2-0.7,0.4c0,0-0.1,0.1-0.1,0.1c-0.2,0.1-0.4,0.1-0.7,0.1
			c-3.1-1.1-6.4-1.6-9.6-1.6c-1.8-0.3-3.4,0.2-5.1,0.6c-0.6,0.1-1.2,0.3-1.8,0.5c-0.3,0.1-0.7,0.2-1-0.1c1.4-0.9,3.1-1.1,4.7-1.4
			c4.6-0.8,9-0.3,13.3,1.4c0.2,0.1,0.5,0,0.7,0.1C42.1,9.3,42.2,9.3,42.3,9.3z"/>
		<path fill="#4C4B4C" d="M23.3,9.3c1.5-0.4,3-0.8,4.5-1.1C28.9,8,30,7.5,31.1,8c-0.4,0.4-0.9,0.4-1.3,0.4
			c-4.5,0.5-8.7,2.1-12.2,4.9c-5.2,4.2-8.3,9.5-9,16.1c-0.7,6.5,0.9,12.4,5,17.5c4.1,5.1,9.4,8.1,16,8.9c1.3,0.2,2.6,0.1,3.9,0.3
			c0.1,0.1,0.2,0.1,0.2,0.2c0,0.1-0.1,0.2-0.2,0.3c-4,0.3-7.8-0.5-11.4-2.2c-4.1-1.9-7.4-4.8-10.1-8.4c-0.1-0.2-0.2-0.4-0.4-0.5
			c-0.1-0.1-0.1-0.3-0.2-0.4c-0.2-0.3-0.4-0.7-0.6-1c-0.5-0.6-0.8-1.3-1-2.1c-0.2-0.3-0.2-0.7-0.4-1c-2.2-6-2.2-11.9,0-17.9
			c0.2-0.3,0.2-0.7,0.4-1c0.2-0.8,0.5-1.4,1-2.1c0.3-0.3,0.4-0.7,0.6-1c0.1-0.2,0.3-0.4,0.4-0.6c0.4-0.6,0.8-1.1,1.2-1.6v0
			c1.2-1.4,2.5-2.7,3.9-3.9h0c0.5-0.4,1.1-0.8,1.6-1.2c0.2-0.1,0.4-0.3,0.6-0.4c0.3-0.3,0.7-0.4,1-0.6c0.7-0.3,1.4-0.7,2.1-1
			C22.6,9.5,22.9,9.4,23.3,9.3z"/>
		<path fill="#BCBCBC" d="M43.9,53.9c0,0.3,0,0.6-0.1,0.8c-2.7,1.2-5.5,2.1-8.4,2.6c-0.6,0.1-1.2,0.1-1.8,0.1c0-0.1,0-0.3-0.1-0.4
			c-0.1-0.1-0.1-0.3,0-0.4l0.1,0c0.3-0.3,0.8-0.4,1.2-0.4c2.7-0.3,5.3-1.1,7.8-2.2c0.4-0.2,0.7-0.4,1.2-0.4
			C43.9,53.7,43.9,53.8,43.9,53.9z"/>
		<path fill="#4B4B4C" d="M33.5,56.6c0,0.1,0,0.3,0,0.4c-5.7,0.1-11-1.3-15.7-4.7c-2.5-1.8-4.7-3.9-6.3-6.6c0.5,0,0.6,0.5,0.9,0.8
			c2.5,3.3,5.5,6,9.3,7.8C25.4,56,29.4,56.8,33.5,56.6z"/>
		<path fill="#4B4B4B" d="M9.3,23.3c-0.3,1.4-0.8,2.7-1,4.1C7.4,31.7,7.6,36,9,40.2c0.1,0.3,0.2,0.7,0.2,1c-0.9-1.3-1.1-2.9-1.4-4.3
			C7,32.5,7.4,28.2,8.8,24C8.9,23.8,9,23.5,9.3,23.3z"/>
		<path fill="#4B4B4B" d="M16.9,13c-1.2,1.4-2.5,2.7-3.9,3.9C13.9,15.2,15.2,13.9,16.9,13z"/>
		<path fill="#4B4B4B" d="M13,16.9c-0.3,0.7-0.7,1.2-1.2,1.6C12,17.8,12.3,17.3,13,16.9z"/>
		<path fill="#4B4B4B" d="M18.5,11.7c-0.4,0.6-1,1-1.6,1.2C17.3,12.3,17.8,12,18.5,11.7z"/>
		<path fill="#4B4B4B" d="M20.2,10.7c-0.2,0.4-0.6,0.5-1,0.6C19.4,10.9,19.7,10.8,20.2,10.7z"/>
		<path fill="#4B4B4B" d="M10.7,44.2c0.4,0.2,0.5,0.6,0.6,1C10.9,45.1,10.8,44.7,10.7,44.2z"/>
		<path fill="#4B4B4B" d="M11.3,19.1c-0.1,0.4-0.2,0.8-0.6,1C10.8,19.7,10.9,19.4,11.3,19.1z"/>
		<path fill="#4B4B4B" d="M23.3,9.3c-0.3,0.3-0.6,0.4-1,0.4C22.5,9.3,22.9,9.2,23.3,9.3z"/>
		<path fill="#4B4B4B" d="M9.7,22.2c0,0.4-0.1,0.8-0.4,1C9.2,22.9,9.3,22.5,9.7,22.2z"/>
		<path fill="#4B4B4B" d="M9.3,41.2c0.3,0.3,0.4,0.6,0.4,1C9.3,41.9,9.2,41.6,9.3,41.2z"/>
		<path fill="#4C4B4C" d="M43.9,53.9c0-0.1,0-0.1-0.1-0.2c0-0.1,0-0.2,0-0.3c2.2-1.4,4.3-2.8,6-4.7c3.4-3.7,5.5-8.1,6.2-13
			c0.9-5.7-0.4-11.1-3.4-16c-0.2-0.4-0.6-0.7-0.3-1.2c0.1,0,0.1,0,0.2,0c2.3,3.6,3.8,7.4,4.1,11.7c0.5,6.1-1.1,11.5-4.5,16.5
			c-2,2.9-4.6,5.1-7.5,6.9C44.5,53.7,44.2,53.8,43.9,53.9z"/>
		<path fill="#4C4C4C" d="M52.5,18.3c0.7,1.7,1.8,3.3,2.5,5.1c2.5,6.4,2.2,12.7-0.6,19c-1.9,4.1-4.7,7.5-8.5,10
			c-0.6,0.4-1.2,0.9-2,1.1c-0.1-0.1-0.1-0.3-0.1-0.4c2-1.3,3.8-2.8,5.5-4.4c3.5-3.5,5.6-7.7,6.4-12.5c0.9-5.7,0-11.1-3-16.1
			c-0.3-0.5-0.8-1-0.7-1.7c0.1-0.1,0.2-0.1,0.3-0.1C52.3,18.3,52.4,18.3,52.5,18.3z"/>
		<path fill="#BFBEBE" d="M52.3,18.3c-0.1,0-0.1,0-0.2,0.1c-0.1,0.1-0.3,0.1-0.4,0c-2.4-3.3-5.4-5.9-9.1-7.6c-0.5-0.2-1.1-0.4-1-1.1
			c0,0,0,0,0,0c4.1,1.7,7.5,4.4,10.2,8C51.9,17.9,52.1,18.1,52.3,18.3z"/>
		<path fill="#B9B9B9" d="M52.5,15.8c-1.4-1.2-2.7-2.5-3.9-3.9c0.7,0.1,1.1,0.8,1.5,1.3C50.9,14.1,52,14.7,52.5,15.8z"/>
		<path fill="#B9B9B9" d="M45.3,9.7c-0.4,0-0.6-0.3-0.8-0.6C45,9,45.1,9.3,45.3,9.7z"/>
		<path fill="#B9B9B9" d="M48.4,11.7c-0.4,0-0.6-0.3-0.8-0.6C48,11.1,48.2,11.4,48.4,11.7z"/>
		<path fill="#4E4E4E" d="M33.5,56.4c-4.3,0.1-8.4-0.7-12.3-2.7c-5.4-2.8-9.3-7.1-11.6-12.8c-1.2-3.2-1.9-6.5-1.6-9.9
			c0.4-5.9,2.5-11,6.6-15.4c3.5-3.6,7.6-6,12.6-7c1.3-0.3,2.6-0.4,3.8-0.6c3.4-0.1,6.7,0.5,9.9,1.7c0,0.1,0,0.2-0.1,0.3
			c-0.3,0.2-0.6,0.3-0.9,0.3c-1.6,0-3.1-0.7-4.6-0.9C29.5,8.8,24,9.9,19.1,13.4c-5,3.6-8.3,8.4-9.4,14.4c-1.4,7.6,0.5,14.5,5.9,20.2
			c3.3,3.5,7.3,5.7,11.9,6.7c1.6,0.3,3.1,0.4,4.7,0.4c0.5,0,1-0.1,1.4,0.2c0.2,0.2,0.2,0.4,0.2,0.6C33.7,56.1,33.7,56.3,33.5,56.4z"
			/>
		<path fill="#BFBFBE" d="M41,9.9C41,9.8,41,9.8,41,9.7c0.2,0,0.4,0,0.5,0c0.2,0.5,0.7,0.7,1.2,0.9c3.4,1.6,6.1,3.9,8.5,6.8
			c0.2,0.3,0.4,0.6,0.4,0.9c-0.1,0.1-0.3,0.2-0.4,0.1c-2.5-3.5-5.8-6-9.7-7.8C41.2,10.4,40.8,10.4,41,9.9z"/>
		<path fill="#BFBFBE" d="M33.5,56.4c0-0.1,0-0.3,0.1-0.4c0.4-0.3,0.9-0.4,1.3-0.4c2.6-0.3,5.2-1.1,7.5-2.3c0.4-0.2,0.8-0.5,1.3-0.3
			c0,0,0.1,0.1,0.1,0.1c0,0.1,0,0.3,0,0.4c0,0.1,0,0.1-0.1,0.2c-3.2,1.6-6.6,2.6-10.2,2.9C33.6,56.5,33.5,56.5,33.5,56.4z"/>
		<path fill="#4E4E4E" d="M51.2,18.3c0.1,0,0.3,0,0.4,0c0.1,0,0.3,0,0.4,0.1c0,0.4,0.3,0.7,0.5,1.1c1.9,3.1,3.2,6.4,3.5,9.9
			c0.3,3.9,0,7.8-1.5,11.6c-2,4.9-5.3,8.6-9.5,11.5c-0.4,0.3-0.8,0.5-1.3,0.6l-0.1,0c-0.2-0.3-0.2-0.5-0.1-0.8
			c0.2-0.3,0.5-0.5,0.8-0.7c6.1-4,9.7-9.6,10.5-16.9c0.6-5.5-0.6-10.7-3.7-15.4c-0.2-0.3-0.6-0.6-0.5-1.1
			C50.9,18.2,51.1,18.2,51.2,18.3z"/>
		<path fill="#515150" d="M33.5,55.4c-3.9,0.2-7.7-0.4-11.2-2.1c-6.8-3.4-11.2-8.7-12.8-16.1c-1.5-7-0.1-13.4,4.3-19.1
			c3.6-4.7,8.4-7.6,14.2-8.6c3.6-0.6,7.3-0.5,10.8,0.6c0.4,0.1,0.8,0.2,1.2,0.2c0.1,0.1,0.1,0.2,0,0.3c-0.4,0.3-0.8,0.5-1.3,0.5
			c-2.1-0.7-4.3-1.1-6.6-1.1c-2.4,0-4.8,0.4-7.2,1.2c-5.3,1.9-9.5,5.2-12.3,10.2c-1.6,2.9-2.6,6.1-2.9,9.5c-0.4,7,2,12.9,6.9,17.7
			c3.8,3.7,8.5,5.7,13.8,6.1c1,0.1,1.9,0.1,2.9,0.2c0.1,0.1,0.2,0.3,0.2,0.4C33.7,55.2,33.6,55.3,33.5,55.4z"/>
		<path fill="#C1C1C1" d="M40.1,10.2c0,0,0-0.1,0-0.1c0.3-0.1,0.6-0.1,0.8-0.2c0.2,0.5,0.7,0.4,1,0.6c3.4,1.7,6.5,3.9,8.8,6.9
			c0.2,0.3,0.4,0.6,0.4,0.9c-0.1,0-0.3,0-0.4,0.1c-0.1,0.1-0.3,0.1-0.4,0c-1.1-1.3-2.2-2.5-3.5-3.6c-1.8-1.5-3.9-2.7-6-3.7
			C40.5,10.9,40,10.9,40.1,10.2z"/>
		<path fill="#C1C1C1" d="M33.5,55.4c0-0.1,0-0.1,0.1-0.2c0.5-0.4,1.2-0.3,1.8-0.4c2.4-0.4,4.8-1,7-2.2c0.4-0.2,0.8-0.5,1.4-0.3
			c0,0,0.1,0.1,0.1,0.1c0,0.3,0,0.6-0.1,0.9c-1.1,0.1-2,0.9-3.1,1.3c-2.3,0.8-4.7,1.4-7.1,1.6C33.6,55.8,33.5,55.6,33.5,55.4z"/>
		<path fill="#515151" d="M50.4,18.3c0.1,0,0.3,0,0.4,0.1c2.3,3.1,3.8,6.6,4.3,10.5c0.7,5.1,0,9.9-2.5,14.4c-2.1,3.8-5,6.9-8.8,9
			l-0.1,0c-0.2-0.3-0.2-0.6-0.1-1c1.5-1.2,3.2-2.2,4.5-3.7c3.4-3.7,5.5-7.9,6.1-12.9c0.6-5.4-0.6-10.3-3.6-14.8
			c-0.3-0.5-0.7-0.9-0.6-1.6C50.2,18.3,50.3,18.2,50.4,18.3z"/>
		<path fill="#535353" d="M33.5,54.7c-3.4,0.4-6.6-0.4-9.8-1.6c-6.5-2.6-10.7-7.3-13-13.9c-0.6-1.8-1-3.7-1.1-5.6
			C9.2,28,11,22.9,14.3,18.4c2.5-3.4,5.9-5.7,9.8-7.3c2.6-1,5.3-1.6,8-1.6c2.3,0,4.7,0.3,6.9,1.2c0,0.1,0,0.2,0,0.3
			c-0.1,0.1-0.2,0.2-0.4,0.3c-0.2,0-0.3,0.1-0.5,0.1c-2.2-0.3-4.3-0.7-6.5-0.6c-4.6,0.1-8.8,1.6-12.4,4.4c-4.8,3.7-7.7,8.6-8.3,14.6
			c-0.7,6.5,1.2,12.3,5.7,17.2c3.6,3.8,8,5.9,13.1,6.7c0.8,0.1,1.7,0,2.6,0.1c0.4,0,0.9-0.1,1.3,0.2c0.2,0.2,0.2,0.4,0.2,0.6
			C33.7,54.6,33.6,54.7,33.5,54.7z"/>
		<path fill="#C3C3C3" d="M38.9,10.9c0-0.1,0-0.1,0.1-0.2c0.4-0.2,0.8-0.3,1.1-0.5c0.1,0.3,0.3,0.4,0.6,0.5c3.3,1.4,6.2,3.3,8.6,6
			c0.4,0.5,0.9,0.9,1.1,1.6c-0.1,0-0.1,0-0.2,0.1c-0.2,0.1-0.4,0.2-0.6,0.1c-1.1-1-2-2.2-3.2-3.1c-2-1.6-4.1-2.9-6.5-3.8
			C39.5,11.4,39.1,11.4,38.9,10.9z"/>
		<path fill="#C4C3C3" d="M33.5,54.7c0-0.1,0-0.1,0.1-0.2c0.2-0.3,0.6-0.4,0.9-0.4c3.1-0.3,6.1-1.3,8.8-2.8c0.1-0.1,0.3-0.1,0.4-0.1
			c0.1,0,0.1,0,0.2,0.1c0,0.4,0,0.7-0.1,1.1c-0.8,0-1.5,0.6-2.2,0.9c-2.6,1.2-5.3,1.8-8.1,2C33.6,55,33.5,54.9,33.5,54.7z"/>
		<path fill="#535353" d="M49.6,18.3c0.2,0,0.4,0,0.6,0.1c0.1,0.5,0.3,0.9,0.6,1.3c2.8,4.1,4.1,8.7,3.9,13.6c-0.2,4.8-1.9,9.2-5,13
			c-1.4,1.8-3.1,3.3-5,4.5c-0.3,0.2-0.6,0.4-0.9,0.4l-0.1,0c-0.2-0.2-0.2-0.4-0.1-0.6c0.2-0.4,0.6-0.6,1-0.9
			c3.1-2.3,5.5-5.2,7.2-8.7c0.2-0.5,0.4-1,0.5-1.6c0.4-3.3,0.9-6.5,1.2-9.8c-0.3-3.9-1.9-7.3-4.1-10.5c-0.2-0.3-0.6-0.5-0.4-1
			C49.2,18.1,49.4,18.2,49.6,18.3z"/>
		<path fill="#555555" d="M33.5,53.9c-4.1,0.2-7.9-0.5-11.5-2.5c-6.4-3.5-10.2-8.8-11.3-16c-0.9-5.9,0.4-11.3,3.9-16.1
			c3.5-4.8,8.3-7.7,14.2-8.6c2.9-0.4,5.7-0.4,8.5,0.4c0.3,0.1,0.6,0.1,0.9,0.1c0,0.5-0.3,0.7-0.8,0.8c-1.8-0.2-3.5-0.5-5.3-0.6
			c-7.6-0.2-16,4.6-19.4,12.8c-5,12.2,2.2,26.2,15.8,28.6c1.1,0.2,2.2,0.2,3.4,0.2c0.5,0,1-0.1,1.4,0.2c0.1,0.1,0.2,0.2,0.2,0.3
			C33.7,53.6,33.7,53.8,33.5,53.9z"/>
		<path fill="#C7C6C6" d="M33.5,53.9c0-0.1,0-0.3,0.1-0.4c0.2-0.2,0.6-0.2,0.9-0.3c2.9-0.4,5.8-1.2,8.3-2.7c0.3-0.2,0.6-0.4,1.1-0.3
			c0.1,0.1,0.1,0.3,0.1,0.5c0,0.2,0,0.4-0.1,0.6C41,53,38,54,34.8,54.3c-0.4,0-0.8,0.1-1.2,0.2C33.6,54.3,33.5,54.1,33.5,53.9z"/>
		<path fill="#C8C8C7" d="M37.6,11.7c0.2-0.2,0.5-0.4,0.7-0.6c0.1,0,0.2-0.1,0.3-0.1c2.3,1,4.7,1.9,6.7,3.5c1,0.8,2,1.6,2.9,2.6
			c0.3,0.3,0.7,0.7,0.6,1.2c-0.1,0.1-0.2,0.1-0.3,0.2c-0.3,0.1-0.6,0.1-0.9-0.1c-2.3-2.8-5.3-4.6-8.7-5.9c-0.4-0.1-0.9-0.2-1.2-0.6
			C37.6,11.9,37.6,11.8,37.6,11.7z"/>
		<path fill="#C6C5C5" d="M48.8,18.3c-1.3-1.9-3.2-3.2-5-4.5c-1.3-0.9-2.8-1.5-4.3-2.1c-0.3-0.1-0.6-0.2-0.8-0.6
			c0.1-0.1,0.2-0.1,0.2-0.2c3.6,1.2,6.8,3.1,9.5,5.9c0.4,0.5,0.8,1,1.2,1.5c-0.2,0-0.4,0-0.6,0.1C48.9,18.4,48.8,18.4,48.8,18.3z"/>
		<path fill="#CACAC9" d="M53.7,29.6c0.2,0.1,0.2,0.3,0.1,0.5c-0.4,3.1-0.8,6.2-1.2,9.3c0,0.1-0.1,0.2-0.2,0.4
			c-0.2,0.2-0.4,0.2-0.7,0.2c-0.3,0-0.6,0-0.8-0.3c-0.2-0.5,0-0.9,0.1-1.3c0.8-2.6,1.3-5.2,0.9-7.9c0-0.3,0-0.6,0.1-0.9
			c0.3-0.3,0.6-0.3,1-0.3C53.4,29.4,53.6,29.5,53.7,29.6z"/>
		<path fill="#555555" d="M51.9,39.8c0.2,0,0.4,0,0.6,0c-0.5,2.2-1.7,4-3,5.7c-1.5,2.1-3.4,3.8-5.6,5.2c0-0.1,0-0.3-0.1-0.4
			c0-0.1,0-0.2,0-0.3c0.4-0.2,0.8-0.5,1.1-0.8c0.1-0.1,0.1-0.1,0.2-0.2c0.4-0.2,0.6-0.5,0.9-0.9c1.4-1.6,2.9-3.1,4-4.9
			C50.7,42.1,51.1,40.8,51.9,39.8z"/>
		<path fill="#555555" d="M53.7,29.6c-0.1,0-0.3,0-0.4,0c-0.4-0.2-0.4-0.6-0.5-0.9c-0.6-3.4-2-6.4-4-9.2c-0.2-0.3-0.8-0.6-0.2-1.1
			c0.1,0,0.1,0,0.2-0.1c0.1,0,0.1,0,0.2,0.1c2.5,3,4,6.4,4.7,10.1C53.8,28.8,53.7,29.2,53.7,29.6z"/>
		<path fill="#585858" d="M37.6,11.7c0,0.1,0,0.1,0,0.2c0,0.4-0.4,0.5-0.7,0.6c-0.8,0.2-1.6-0.1-2.4-0.2c-5.5-0.6-10.4,0.8-14.7,4.2
			c-3.9,3.1-6.4,7.1-7.2,12.1c-1,5.9,0.3,11.4,4.1,16.1c2.6,3.3,6,5.5,10,6.7c1.8,0.5,3.6,0.8,5.4,0.8c0.5,0,1.1-0.1,1.6,0.3
			c0.2,0.3,0.2,0.6-0.1,0.8c-3.6,0.2-7.1-0.4-10.3-2c-4-1.9-7.1-4.7-9.3-8.5c-2.3-4-3.2-8.3-2.7-12.8c0.4-4.1,2-7.8,4.5-11
			c3-3.8,6.8-6.1,11.4-7.3C30.6,10.8,34.1,10.9,37.6,11.7z"/>
		<path fill="#CACAC9" d="M33.5,53.3c0-0.3,0-0.6,0-0.8c0,0,0-0.1,0.1-0.1c0.4-0.4,1-0.3,1.6-0.4c2.7-0.4,5.2-1.4,7.6-2.8
			c0.3-0.2,0.6-0.5,1.1-0.4c0.3,0.3,0.3,0.6,0.2,0.9c0,0.1-0.1,0.2-0.2,0.3c0,0.1,0,0.1-0.1,0.2c-2.6,1.6-5.5,2.7-8.6,3.2
			c-0.6,0.1-1.1,0.1-1.6,0.1C33.6,53.4,33.5,53.4,33.5,53.3z"/>
		<path fill="#585858" d="M48.6,18.4c-0.1,0.2-0.1,0.3,0,0.5c2.5,3.1,4.1,6.6,4.6,10.5c0,0.1,0.1,0.2,0.1,0.3c-0.3,0-0.7,0-1,0.1
			c0,0-0.1-0.1-0.1-0.1c-0.4-1.3-0.6-2.7-1.1-4.1c-0.8-2.1-1.8-4-3.2-5.8c-0.3-0.3-0.6-0.7-0.6-1.2c0-0.2,0.1-0.3,0.3-0.2
			C47.9,18.3,48.2,18.3,48.6,18.4z"/>
		<path fill="#CBCBCB" d="M47.5,18.3c-0.1,0.1-0.1,0.1-0.2,0.2c-0.1,0.1-0.2,0.2-0.4,0.2c-0.1,0-0.2-0.1-0.3-0.1
			c-2.3-2.6-5.2-4.4-8.5-5.4C37.7,13,37.3,13,37,12.6c0-0.1-0.1-0.2,0-0.3c0.2-0.1,0.4-0.3,0.6-0.4c3.6,1,6.7,2.9,9.4,5.4
			C47.3,17.6,47.6,17.9,47.5,18.3z"/>
		<path fill="#585858" d="M43.9,49.8c0-0.3,0-0.7-0.1-1c0,0,0-0.1,0-0.1c1.7-1.4,3.4-2.9,4.6-4.7c0.9-1.3,1.6-2.8,2.4-4.2
			c0,0,0.1,0,0.1-0.1c0.3,0,0.6,0,0.8,0.1c-0.6,2.1-1.8,3.8-3,5.6c-0.8,1.1-1.9,1.9-2.7,3c-0.4,0.2-0.7,0.6-1,0.8
			C44.7,49.4,44.4,49.9,43.9,49.8z"/>
		<path fill="#CECECE" d="M52.3,29.7c0.6,3.5-0.1,6.8-1.2,10l0,0.1c-0.3,0.2-0.7,0.3-1,0c-0.2-0.3-0.1-0.7,0.1-1
			c0.9-2.5,1.2-5.1,1.1-7.7c0-0.4,0-0.9,0.1-1.3c0.1-0.1,0.2-0.2,0.3-0.2C51.8,29.4,52.1,29.4,52.3,29.7L52.3,29.7z"/>
		<path fill="#555655" d="M43.9,49.8c0.4-0.1,0.7-0.6,1.2-0.6c-0.3,0.4-0.6,0.9-1.2,0.8C43.9,49.9,43.9,49.9,43.9,49.8z"/>
		<path fill="#555655" d="M45.1,49.2c0.3-0.4,0.5-0.8,1-0.8C45.8,48.7,45.6,49.1,45.1,49.2z"/>
		<path fill="#5B5B5A" d="M37,12.3c0,0.1,0,0.1,0,0.2c0,0.4-0.3,0.6-0.6,0.6c-6.3-1.5-11.9,0.2-16.9,4.2c-3.8,3-5.9,7.1-6.7,11.9
			c-0.1,0.4-0.1,0.7-0.1,1.1c0,0.4,0,0.9-0.1,1.3c-0.1,0.4-0.2,0.8,0,1.2c0.1,0.4,0.1,0.9,0.1,1.3c0,0.4,0,0.7,0.1,1.1
			c0.1,0.4,0.1,0.8,0.2,1.2c0.1,0.5,0.2,1,0.4,1.4c2,6.4,6.2,10.7,12.6,13c0.2,0.1,0.4,0.1,0.6,0.2c0.1,0.1,0.1,0.1,0.2,0.2
			c0,0.2-0.2,0.2-0.3,0.3c-3.3-1-6.2-2.7-8.6-5.2c-3.2-3.3-5.1-7.2-5.7-11.9c-0.5-4.2,0.2-8.1,2.1-11.8c3.1-5.9,8.1-9.4,14.7-10.6
			c2.4-0.4,4.7-0.4,7.1,0.1C36.4,12.4,36.7,12.3,37,12.3z"/>
		<path fill="#5B5B5B" d="M26.3,51.7c0.1-0.1,0.1-0.1,0.2-0.2c0.5-0.4,0.9,0,1.4,0c0.4,0.1,0.8,0.2,1.2,0.2c0.4,0.1,0.7,0.1,1.1,0.1
			c0.4,0,0.9,0,1.3,0.1c0.4,0.1,0.8,0.2,1.2,0c0.3,0,0.5,0,0.8,0.1c0.1,0.2,0.1,0.3,0,0.5l-0.1,0C31.1,52.6,28.7,52.3,26.3,51.7z"/>
		<path fill="#CECECD" d="M33.6,52.5c0-0.1,0-0.3-0.1-0.4c-0.1-0.2-0.2-0.4,0-0.6c0.2-0.2,0.4-0.2,0.7-0.2c3-0.4,5.9-1.4,8.5-3
			c0.4-0.2,0.7-0.6,1.2-0.2c0.2,0.3,0.1,0.6,0,0.8l-0.1,0c-2.9,2-6,3.2-9.4,3.5C34.1,52.3,33.8,52.3,33.6,52.5z"/>
		<path fill="#5B5B5B" d="M52.3,29.6c-0.2,0-0.4,0-0.6,0c-0.4-0.6-0.5-1.3-0.6-2c-0.7-2.9-2-5.5-3.9-7.8c-0.3-0.3-0.9-0.7-0.2-1.2
			c0.1,0,0.3,0,0.4,0c1.1,1.6,2.4,3.1,3.2,4.9C51.4,25.4,52.1,27.4,52.3,29.6z"/>
		<path fill="#CECDCD" d="M36.4,13c0.2-0.1,0.4-0.3,0.5-0.4c1.9,0.6,3.8,1.2,5.5,2.3c1.6,1,3.3,1.9,4.2,3.7
			c-0.1,0.3-0.3,0.4-0.6,0.3c-0.8-0.4-1.2-1.2-1.9-1.7c-2-1.5-4.2-2.7-6.6-3.4c-0.4-0.1-0.8-0.2-1.1-0.5
			C36.3,13.1,36.3,13.1,36.4,13z"/>
		<path fill="#5C5C5D" d="M46.1,18.7c0.2-0.1,0.4-0.1,0.6-0.2c0.1,0,0.1,0,0.2,0.1c-0.4,0.5,0.1,0.7,0.3,1c2.5,2.9,4,6.2,4.4,10
			c-0.1,0-0.1,0-0.2,0.1c-0.1,0.1-0.3,0.1-0.4,0c-0.3-0.6-0.4-1.2-0.5-1.9c-0.8-3-2.1-5.7-4.2-8.1c-0.2-0.2-0.4-0.4-0.5-0.8
			C45.8,18.8,45.9,18.7,46.1,18.7z"/>
		<path fill="#5B5B5B" d="M43.9,48.8c0-0.3,0-0.6-0.1-0.8c-0.2-0.2-0.2-0.5-0.1-0.7c1.9-1.8,3.8-3.7,5.1-6c0.3-0.5,0.4-1.1,0.8-1.5
			c0.2-0.1,0.3-0.1,0.4,0c0.3,0,0.7,0,1,0.1C49.5,43.4,47.2,46.5,43.9,48.8z"/>
		<path fill="#D0D1D1" d="M50,39.7c-0.1,0-0.3,0-0.4,0.1c-0.2,0.1-0.3,0.1-0.5-0.1c-0.1-0.3-0.1-0.6,0-0.9c1-2.8,1.4-5.7,1.1-8.6
			c0-0.2,0-0.3,0.1-0.5c0.2-0.2,0.4-0.2,0.7-0.1c0.1,0,0.3,0,0.4,0.1C51.6,33.1,51.4,36.5,50,39.7z"/>
		<path fill="#5C5C5C" d="M36.4,13c0,0.1,0,0.1,0,0.2c-0.1,0.3-0.2,0.4-0.5,0.4c-1.2,0.2-2.4-0.2-3.7-0.2c-9,0-16.8,6.4-18.5,15.4
			c-2,10.5,5.4,20.5,15.9,22c1.3,0.2,2.6-0.1,3.9,0.3c0.1,0.1,0.1,0.2,0.1,0.3c0,0.2,0,0.4-0.1,0.6c-0.3,0-0.5,0-0.8,0
			c-0.3,0-0.7,0-1,0c-0.5,0-1,0-1.4,0c-0.3-0.2-0.7-0.1-1-0.2c-0.4,0-0.9,0-1.2-0.2c-0.5-0.2-1-0.2-1.4-0.4
			c-2.6-0.5-4.8-1.8-6.8-3.4c-3.1-2.4-5.2-5.5-6.5-9.2c-0.1-0.2-0.1-0.5-0.1-0.7c-0.2-0.5-0.2-1-0.4-1.4c-0.2-0.4-0.2-0.8-0.2-1.2
			c-0.1-0.3,0-0.7-0.2-1c0-0.5,0-1,0-1.4c0-0.3,0-0.7,0-1c0-0.5,0-1,0-1.4c0.3-0.3,0-0.7,0.2-1c0.3-3.3,1.7-6.2,3.6-8.8
			c3.1-4.3,7.5-6.7,12.7-7.8c2.2-0.5,4.5-0.4,6.7,0C35.8,12.6,36.1,12.8,36.4,13z"/>
		<path fill="#5B5B5B" d="M26.5,51.2c0.5,0,1,0.1,1.4,0.4c-0.5-0.1-1-0.1-1.4-0.2C26.5,51.4,26.5,51.3,26.5,51.2z"/>
		<path fill="#5B5B5B" d="M12.3,31.7c0.2,0.3,0.2,0.7,0,1C12,32.4,12,32,12.3,31.7z"/>
		<path fill="#5B5B5B" d="M12.8,36.4c0.3,0.4,0.4,0.9,0.4,1.4C12.8,37.4,12.7,36.9,12.8,36.4z"/>
		<path fill="#5B5B5B" d="M12.3,34.2c0.3,0.3,0.4,0.6,0.2,1C12.2,34.9,12.4,34.5,12.3,34.2z"/>
		<path fill="#5B5B5B" d="M12.6,29.2c-0.1,0.3,0.1,0.7-0.2,1C12.4,29.9,12.2,29.5,12.6,29.2z"/>
		<path fill="#5B5B5B" d="M31.7,52.1c0.3-0.2,0.7-0.2,1,0C32.4,52.4,32,52.4,31.7,52.1z"/>
		<path fill="#5B5B5B" d="M29.2,51.9c0.4-0.2,0.7-0.1,1,0.2C29.9,52,29.5,52.2,29.2,51.9z"/>
		<path fill="#D0D0D0" d="M33.6,51.4c0-0.1,0-0.1-0.1-0.2c-0.1-0.2-0.1-0.4,0-0.6c0.2-0.2,0.5-0.2,0.8-0.3c3-0.4,5.8-1.4,8.3-3.1
			c0.4-0.2,0.7-0.6,1.2-0.4c0.1,0.1,0.1,0.2,0.1,0.3c0,0.3,0,0.5-0.1,0.8c-1.4,0.5-2.5,1.5-3.9,2C37.8,50.7,35.8,51.4,33.6,51.4z"/>
		<path fill="#CFD0D0" d="M36.1,13.4c0.1-0.1,0.2-0.2,0.3-0.2c3.8,0.9,7.1,2.5,9.7,5.5c-0.1,0.1-0.1,0.1-0.2,0.2
			c-0.1,0.2-0.3,0.3-0.5,0.3c-0.1,0-0.2-0.1-0.3-0.1c-2.4-2.4-5.3-3.9-8.6-4.8c-0.3-0.1-0.5-0.1-0.8-0.3
			C35.7,13.7,35.8,13.6,36.1,13.4z"/>
		<path fill="#5E5F5F" d="M45.5,19.1c0.1-0.2,0.2-0.2,0.4-0.2c1.2,1.3,2.3,2.7,3.1,4.3c1,2,1.8,4.1,2,6.4c-0.2,0-0.4,0-0.6,0.1
			c0,0-0.1-0.1-0.1-0.1c-0.4-1-0.5-2-0.8-3.1c-0.8-2.3-2-4.4-3.6-6.3C45.7,19.9,45.2,19.7,45.5,19.1z"/>
		<path fill="#5E5F5F" d="M43.9,47.1c0-0.1,0-0.1-0.1-0.2c-0.1-0.1-0.1-0.3-0.1-0.4c0.7-1,1.7-1.7,2.5-2.7c1-1.3,1.8-2.7,2.7-4.1
			c0.1-0.1,0.2-0.1,0.3,0c0.1,0,0.3,0,0.4,0.1c-0.6,1.9-1.8,3.5-3.1,5C45.7,45.6,45,46.6,43.9,47.1z"/>
		<path fill="#D3D3D3" d="M49.2,39.7c-0.1,0-0.1,0-0.2,0.1c-0.3,0.2-0.7,0.3-1,0c-0.1-0.3,0-0.6,0.1-0.9c1-2.3,1.4-4.8,1.2-7.3
			c0-0.6-0.2-1.3,0.3-1.9c0.3-0.2,0.6-0.2,0.9,0l0,0.1c0.5,2.7,0.2,5.4-0.6,8C49.6,38.3,49.4,39,49.2,39.7z"/>
		<path fill="#5E5E5E" d="M36.1,13.4c-0.1,0.2-0.2,0.4-0.3,0.6c-0.1,0.1-0.2,0.2-0.3,0.2c-1.1,0.2-2.2-0.1-3.3-0.1
			c-9,0-16.5,6.4-18,15.3C12.7,39,19.1,48.2,28.8,50c1.1,0.2,2.3,0.4,3.5,0.3c0.4,0,0.8,0,1.2,0.1c0,0,0.1,0.1,0.1,0.1
			c0,0.2,0,0.4-0.1,0.6c-3.5,0.2-6.8-0.5-9.9-2c-3.3-1.7-5.9-4.2-7.8-7.4c-2-3.5-2.9-7.2-2.6-11.2c0.4-4.4,2.1-8.2,5.1-11.5
			c2.8-3,6.3-4.9,10.3-5.7c2-0.4,4-0.5,6-0.1C35.1,13.4,35.6,13.4,36.1,13.4z"/>
		<path fill="#D3D3D3" d="M43.9,46.5c0,0.1,0,0.3-0.1,0.4c-1,0.3-1.7,1-2.6,1.5c-2.4,1.2-4.9,2.2-7.7,2.2l-0.1,0
			c-0.2-0.3-0.2-0.6-0.1-1c0.3-0.4,0.8-0.4,1.2-0.4c3.1-0.5,5.8-1.7,8.3-3.6c0.3-0.2,0.5-0.6,1-0.3C44.2,45.7,44,46.1,43.9,46.5z"/>
		<path fill="#D3D3D3" d="M35.6,14c0.1,0,0.1,0,0.2,0c2.2,0.2,4.1,1.2,6,2.2c1,0.6,2,1.4,2.9,2.1c0.3,0.2,0.6,0.4,0.6,0.8
			c0,0.3-0.1,0.6-0.4,0.8c-0.2,0.1-0.3,0.2-0.6,0.1c-2.5-2.3-5.3-3.9-8.6-4.6c-0.2,0-0.4-0.1-0.6-0.2c-0.1-0.1-0.1-0.2-0.1-0.3
			C35.1,14.4,35.3,14.2,35.6,14z"/>
		<path fill="#616161" d="M44.8,19.7c0.1-0.2,0.3-0.4,0.4-0.6c0.1,0,0.1,0,0.2,0c0.4,1,1.2,1.7,1.8,2.5c1.7,2.4,2.7,5,3.1,8
			c-0.3,0-0.6,0-0.8,0.1c0,0-0.1,0-0.1-0.1c-0.3-0.2-0.3-0.6-0.4-0.9c-0.6-2.8-1.8-5.3-3.6-7.5C45.1,20.8,44.6,20.4,44.8,19.7z"/>
		<path fill="#606161" d="M43.9,46.5c0-0.4,0-0.8-0.1-1.2c0,0,0-0.1,0-0.1c1.6-1.6,3-3.3,4-5.4c0,0,0.1-0.1,0.1-0.1
			c0.3,0,0.7,0,1,0.1C47.9,42.5,46,44.6,43.9,46.5z"/>
		<path fill="#D6D6D6" d="M49.6,29.7c0.1,2.9,0.2,5.8-1,8.5c-0.2,0.5-0.4,1-0.7,1.5l0,0.1c-0.2,0.1-0.4,0.1-0.7,0
			c-0.3-0.4-0.1-0.7,0-1.1c1.1-2.7,1.6-5.6,1.2-8.5c0-0.1,0-0.3,0.1-0.4c0.1-0.1,0.1-0.2,0.3-0.2C49.2,29.4,49.4,29.5,49.6,29.7
			L49.6,29.7z"/>
		<path fill="#616161" d="M35.6,14c-0.2,0.3-0.3,0.5-0.5,0.8c-0.5,0.4-1,0.3-1.6,0.2c-3.5-0.4-6.8,0.4-9.8,2.1
			c-4.7,2.7-7.7,6.6-8.5,12c-1.2,7.1,1.2,12.8,6.9,17.1c3.3,2.5,7.2,3.3,11.2,3.3c0,0,0.1,0.1,0.1,0.1c0,0.4,0,0.7-0.1,1.1
			c-3.4,0.1-6.7-0.4-9.7-2c-5.5-3-8.9-7.5-9.8-13.8c-0.9-6.6,1.3-12.1,6.2-16.5c2.6-2.4,5.8-3.8,9.4-4.3
			C31.6,13.7,33.6,13.8,35.6,14z"/>
		<path fill="#D6D6D6" d="M43.8,45.3c-2.9,2.5-6.3,4.1-10.2,4.3l-0.1,0c-0.1-0.2-0.1-0.4,0-0.6c0.3-0.3,0.7-0.4,1.1-0.4
			c3-0.5,5.8-1.7,8.2-3.6c0.3-0.2,0.6-0.6,1-0.4C44.1,44.8,44,45,43.8,45.3L43.8,45.3z"/>
		<path fill="#636363" d="M33.6,49c0,0.2,0,0.4-0.1,0.6c-1.8,0.4-3.5,0-5.1-0.4c-6.2-1.4-10.5-5.2-12.6-11.1
			c-2.2-6.1-1.2-11.9,2.9-17c2.8-3.6,6.6-5.5,11-6.3c1.8-0.3,3.7-0.1,5.5,0c0,0.1,0,0.1,0,0.2c0,0.3-0.2,0.5-0.5,0.6
			c-1.3,0.2-2.6-0.2-4,0c-1.3,0.2-2.5,0.4-3.8,0.8c-6,2.1-9.7,6.2-11,12.4c-1.2,5.3,0.2,10.1,3.7,14.2c2.9,3.4,6.6,5.2,11,5.7
			c0.9,0.1,1.8,0.2,2.8,0.1C33.5,48.9,33.5,48.9,33.6,49z"/>
		<path fill="#D6D6D5" d="M34.8,15.5c0.1-0.1,0.2-0.3,0.3-0.4c3.5,0.5,6.5,2.2,9.1,4.5c0.1,0.1,0.1,0.3,0.2,0.5
			c0.1,0.1,0.1,0.3,0,0.4c-0.1,0.1-0.2,0.1-0.3,0.1c-0.3-0.1-0.5-0.2-0.7-0.4c-2.5-2.3-5.4-3.7-8.7-4.2
			C34.7,15.7,34.7,15.5,34.8,15.5z"/>
		<path fill="#636363" d="M44.4,20.3c0-0.1,0-0.2,0-0.3c0.1-0.1,0.2-0.2,0.4-0.3c0.3,1,1.2,1.7,1.8,2.6c1.4,2.1,2.4,4.4,2.8,6.9
			c0,0.2,0.1,0.3,0.2,0.5c-0.2,0-0.4,0-0.6,0c-0.4-0.2-0.4-0.6-0.5-0.9c-0.6-2.7-1.8-5.2-3.6-7.3C44.6,21.1,44.2,20.8,44.4,20.3z"/>
		<path fill="#636363" d="M43.9,45.3c0-0.3,0-0.6-0.1-0.8c0,0,0-0.1,0-0.1c1.2-1.5,2.4-3,3.4-4.6c0,0,0.1,0,0.1-0.1
			c0.2,0,0.4,0,0.6,0.1c-0.3,1.5-1.4,2.6-2.2,3.7C45.2,44.1,44.7,44.9,43.9,45.3z"/>
		<path fill="#D9D8D8" d="M48.8,29.7c0.6,3.3,0,6.5-1.4,9.5c-0.1,0.2-0.1,0.3-0.1,0.5c0,0,0,0.1,0,0.1c-0.3,0.1-0.5,0.2-0.8,0.1
			c-0.1,0-0.2-0.1-0.3-0.2c-0.1-0.4,0-0.7,0.2-1c1.1-2.6,1.7-5.3,1.3-8.1c0-0.3,0-0.6,0.1-0.9c0.1-0.1,0.2-0.2,0.3-0.2
			C48.4,29.4,48.6,29.5,48.8,29.7z"/>
		<path fill="#656666" d="M48.8,29.7c-0.2,0-0.4,0-0.6-0.1c-0.2-0.2-0.3-0.5-0.3-0.7c-0.5-2.5-1.6-4.8-3.2-6.8
			c-0.3-0.4-0.7-0.9-0.5-1.5c0-0.1,0.1-0.2,0.2-0.3c0.1,0,0.1,0,0.2-0.1c0.8,1.3,1.9,2.4,2.7,3.8c0.9,1.7,1.4,3.6,1.9,5.4
			C48.9,29.6,48.8,29.6,48.8,29.7z"/>
		<path fill="#D9D8D8" d="M43.8,44.4c-2.9,2.6-6.3,4.1-10.2,4.5l-0.1,0c-0.1-0.1-0.1-0.2-0.1-0.3c0-0.2,0-0.3,0-0.5
			c0-0.2,0.1-0.3,0.2-0.4c1.9-0.4,3.8-0.7,5.6-1.7c1.3-0.7,2.6-1.6,3.7-2.5c0.3-0.2,0.5-0.6,1-0.5c0.1,0.1,0.1,0.2,0.2,0.3
			C44.1,43.8,44,44.1,43.8,44.4L43.8,44.4z"/>
		<path fill="#656665" d="M33.5,48.4c0,0.1,0,0.3,0,0.4c-2,0.5-4,0.1-5.9-0.5c-7.2-2.2-11.8-8-12.1-15.6c-0.2-4.2,1.2-8.1,4-11.3
			c1.9-2.2,4.1-3.8,6.8-4.8c0.2-0.1,0.3-0.2,0.4-0.3c2.2-0.7,4.4-1.2,6.8-0.8c0.4,0.1,0.9,0,1.3,0c0,0.1,0,0.3,0,0.4
			c0,0.2-0.1,0.3-0.3,0.4c-1.1,0.3-2.2,0-3.3,0.1c-7.1,0.3-13.4,5.8-14.7,12.9c-1.7,9,4.3,17.5,13.4,18.9c0.9,0.1,1.9,0.3,2.9,0.1
			C33,48.1,33.3,48.1,33.5,48.4z"/>
		<path fill="#656665" d="M26.8,16.3c-0.1,0.6-0.6,0.5-0.9,0.7c-5.6,2.6-9,6.8-10,12.9c-1.1,7.3,2.7,13.9,8.9,17.2
			c2.7,1.4,5.7,1.9,8.7,1.7c0,0.1,0,0.1,0,0.2c-2.1,0.4-4.1,0-6-0.6c-6.8-2.1-10.8-6.8-12-13.7c-0.8-5,0.6-9.6,3.9-13.5
			C21.4,18.9,23.8,17.2,26.8,16.3z"/>
		<path fill="#D8D8D8" d="M34.6,16.1c0.1-0.1,0.1-0.1,0.2-0.2c0.3-0.2,0.7-0.2,1.1-0.1c3.2,0.8,6,2.3,8.4,4.6c0,0.1,0,0.1,0,0.2
			c-0.3,0.4,0.1,0.8-0.1,1.2c-0.1,0.1-0.2,0.1-0.3,0.1c-2.1-2.6-4.9-4.1-8-4.9c-0.5-0.1-1-0.1-1.3-0.7
			C34.5,16.2,34.5,16.1,34.6,16.1z"/>
		<path fill="#656565" d="M43.9,44.5c0-0.3,0-0.7,0-1c0.8-1.3,1.7-2.5,2.6-3.7c0.3,0,0.6,0,0.8,0C46.4,41.5,45.3,43.1,43.9,44.5z"/>
		<path fill="#DCDCDB" d="M47.9,29.7c0.5,2.8,0.1,5.4-0.8,8c-0.2,0.7-0.6,1.3-0.8,2C46.1,40,45.8,40,45.5,40c-0.2,0-0.3-0.1-0.5-0.2
			c-0.3-0.5,0-0.9,0.2-1.3c1.1-2.5,1.6-5,1.3-7.7c0-0.3-0.1-0.7,0.1-1c0.2-0.2,0.4-0.3,0.7-0.3C47.6,29.4,47.8,29.4,47.9,29.7z"/>
		<path fill="#686868" d="M47.9,29.7c-0.2,0-0.4,0-0.6-0.1c-0.4-0.3-0.5-0.7-0.5-1.1c-0.4-1.9-1.3-3.6-2.4-5.1
			c-0.4-0.5-0.8-1-0.4-1.7c0-0.4,0-0.8,0.2-1.2c-0.1,0.8,0.5,1.3,0.9,1.8c1.6,2.2,2.7,4.5,3,7.2C48.1,29.6,48,29.6,47.9,29.7z"/>
		<path fill="#676868" d="M45.5,39.8c0.3,0,0.6,0,0.8-0.1c0.1,0,0.1,0,0.2,0.1c-0.6,1.4-1.5,2.6-2.6,3.7c0-0.1,0-0.1-0.1-0.2
			c-0.3-0.3-0.2-0.7-0.2-1.1C44.2,41.3,44.7,40.4,45.5,39.8z"/>
		<path fill="#676868" d="M34.6,16.1c0,0.1,0,0.1,0,0.2c-0.1,0.2-0.1,0.4-0.3,0.5c-1.4,0-2.7-0.1-4.1,0.1c-5.2,0.8-9.1,3.4-11.6,7.9
			c-2,3.5-2.4,7.4-1.4,11.3c1.1,4.3,3.7,7.5,7.5,9.7c2.1,1.2,4.4,1.8,6.9,1.9c0.6,0,1.2-0.1,1.8,0.1c0,0,0.1,0.1,0.1,0.1
			c0,0.1,0,0.3-0.1,0.4c-4.2,0.3-8-0.8-11.4-3.4c-3.1-2.4-5.1-5.6-5.9-9.5c-1.1-6.1,0.6-11.4,5.3-15.6c2.7-2.4,5.9-3.7,9.5-3.9
			C32.3,16,33.4,16.1,34.6,16.1z"/>
		<path fill="#DCDCDB" d="M43.9,42c0,0.4,0,0.8-0.1,1.2C41.5,45.3,39,47,36,47.6c-0.8,0.2-1.6,0.4-2.4,0.3l-0.1,0
			c-0.1-0.1-0.2-0.3-0.2-0.4c0-0.2,0-0.4,0-0.6c0-0.1,0.1-0.2,0.2-0.3c1.5-0.3,3.1-0.6,4.5-1.2c1.8-0.8,3.3-1.9,4.7-3.2
			c0.3-0.3,0.6-0.7,1.1-0.7C44,41.7,43.9,41.8,43.9,42z"/>
		<path fill="#DCDBDB" d="M34.3,16.7c0.1-0.1,0.2-0.3,0.2-0.4c0.3,0.4,0.8,0.3,1.2,0.4c2.8,0.6,5.3,2,7.4,4c0.4,0.3,0.7,0.7,0.7,1.2
			c0.1,0.3,0.1,0.6,0.1,0.9c-0.4,0.3-0.6,0-0.8-0.2c-2.4-2.4-5.1-4-8.4-4.7c-0.1,0-0.3-0.1-0.4-0.2c-0.1-0.1-0.2-0.1-0.2-0.2
			C34,17.4,34,17.3,34,17.1C34.1,16.9,34.2,16.8,34.3,16.7z"/>
		<path fill="#6A6A6A" d="M43.8,22.8c0-0.3,0-0.7,0.1-1c0.1,0,0.1-0.1,0.2-0.1c-0.1,0.9,0.6,1.5,1.1,2.1c1.1,1.8,1.8,3.7,2.3,5.7
			c-0.2,0-0.4,0-0.6,0.1c0,0-0.1,0-0.1-0.1c-0.5-0.6-0.5-1.4-0.7-2.1c-0.5-1.5-1.3-2.8-2.1-4.1C43.6,23.2,43.6,23,43.8,22.8z"/>
		<path fill="#E0E0E0" d="M43.8,41.6c-1.7,1.6-3.4,3.1-5.5,4c-1.5,0.7-3,1.2-4.7,1.1c-0.3-0.2-0.3-0.5-0.3-0.8
			c0-0.2,0.1-0.3,0.2-0.5c1.4-0.4,2.8-0.6,4.1-1.2c4.3-2.1,6.9-5.4,7.6-10.2c0.2-1.2,0.3-2.3,0-3.5c-0.1-0.3-0.1-0.7,0.1-1
			c0.1-0.1,0.2-0.1,0.3-0.2c0.4-0.1,0.7,0,1,0.2l0,0.1c0.5,2.3,0.1,4.6-0.4,6.9c-0.3,1.1-1.1,2-1.2,3.1
			C44.1,39.9,44.2,40.9,43.8,41.6z"/>
		<path fill="#6B6B6B" d="M43.8,41.6c0-0.2,0.1-0.4,0-0.6c-0.2-1,0.2-1.4,1.2-1.3c0.1,0,0.3,0,0.4,0.1c-0.4,0.8-0.9,1.6-1.6,2.2
			C43.8,41.8,43.8,41.7,43.8,41.6z"/>
		<path fill="#676868" d="M34.3,16.7c0,0.2,0,0.3-0.2,0.4c-0.2,0.1-0.4,0.1-0.6,0.1c-4.5-0.3-8.5,1-11.8,4.1
			c-2.4,2.3-3.9,5.1-4.5,8.4c-0.8,5,0.6,9.3,4,13c2.3,2.4,5.1,3.9,8.4,4.4c0.9,0.1,1.8,0.3,2.8,0.2c0.3,0,0.7,0,1,0.3
			c0,0.1,0,0.3,0,0.4C31.3,48,29.1,47.8,27,47c-5.9-2.2-9.4-6.4-10.3-12.7c-0.8-5.3,0.9-9.9,4.7-13.6c2.4-2.3,5.3-3.7,8.6-4.1
			C31.4,16.4,32.9,16.4,34.3,16.7z"/>
		<path fill="#6C6D6D" d="M33.5,45.9c0,0.3,0,0.5,0.1,0.8c0,0.1,0,0.1-0.1,0.2c-0.6,0.5-1.3,0.3-2,0.2c-6.3-0.6-10.9-3.7-13.3-9.7
			c-3.5-8.8,2.5-18.9,12-20.1c1.3-0.2,2.6-0.4,3.8,0.1l0.1,0c0.2,0.4,0,0.6-0.2,0.9c-0.4,0.4-0.9,0.4-1.4,0.4
			c-7.1-0.1-13,5-13.7,12.2c-0.4,3.7,0.7,7.1,3.2,10c2.8,3.2,6.3,4.6,10.4,4.7C32.9,45.6,33.2,45.6,33.5,45.9z"/>
		<path fill="#6A6A6A" d="M34.1,17.5c-1.3,0.1-2.5,0-3.8,0.1c-4.1,0.6-7.3,2.5-9.8,5.8c-1.9,2.5-2.9,5.3-3,8.4
			c-0.1,7.1,4.6,13.1,11.4,14.7c1.5,0.3,3,0.5,4.6,0.4c0,0.2,0,0.4,0,0.6c-3.3,0.1-6.5-0.5-9.4-2.3c-4-2.6-6.4-6.2-7.1-11
			c-0.7-4.9,0.8-9.1,4-12.6c2.4-2.6,5.4-4.2,9-4.6c1.4-0.2,2.7-0.3,4.1,0C34.2,17.2,34.1,17.4,34.1,17.5z"/>
		<path fill="#E0E0E0" d="M33.9,18.3c0.1-0.3,0.2-0.6,0.3-0.8c2.8,0.6,5.4,1.6,7.6,3.5c0.7,0.6,1.4,1.2,2,1.8c0,0.2,0,0.4,0.1,0.6
			c0.2,0.5,0.3,1,0.3,1.5c0,0.3,0,0.6-0.2,0.8c-0.8,0.4-1-0.4-1.3-0.8c-1.4-1.8-3-3.3-5-4.3c-0.9-0.4-1.8-0.7-2.8-1
			c-0.4-0.1-0.8-0.1-1.1-0.5C33.4,18.9,33.8,18.7,33.9,18.3z"/>
		<path fill="#6C6D6D" d="M43.9,25.1c0-0.5,0-1.1,0-1.6c1.4,1.6,2.1,3.5,2.6,5.5c0.1,0.2,0.1,0.4,0.2,0.7c-0.3,0-0.7,0-1,0
			c-0.2-0.1-0.4-0.2-0.4-0.4C45,27.7,44.2,26.5,43.9,25.1z"/>
		<path fill="#6F6F6F" d="M33.9,18.3c0,0.3-0.1,0.7-0.1,1c0,0-0.1,0.1-0.1,0.1c-0.1,0-0.2,0.1-0.3,0.1c-6.6-0.6-12.9,4-13.7,11.1
			c-0.6,5.4,1.5,9.6,6.1,12.5c2.2,1.4,4.6,1.9,7.2,1.8c0.2,0,0.5-0.1,0.7,0.1c0.1,0.1,0.1,0.3,0,0.5c0,0.1,0,0.3-0.1,0.4
			c-3.4,0.1-6.5-0.6-9.3-2.6c-3-2.3-4.9-5.2-5.5-9c-0.6-3.8,0.3-7.2,2.5-10.2c2.2-3,5.2-4.8,8.9-5.4C31.3,18.5,32.7,18.8,33.9,18.3z
			"/>
		<path fill="#E2E2E2" d="M33.6,45.5c0-0.1,0-0.3-0.1-0.4c-0.1-0.2-0.1-0.3,0-0.5c1.7-0.4,3.3-0.9,4.8-1.7c3.4-1.9,5.3-4.9,6-8.6
			c0.3-1.2,0.3-2.4,0.1-3.7c-0.1-0.3-0.1-0.7,0.1-1c0.1-0.1,0.2-0.1,0.3-0.2c0.2,0,0.5,0,0.6,0.2c0.3,2.1,0.3,4.2-0.4,6.3
			c-1,3.3-2.9,5.9-5.9,7.7C37.5,44.7,35.7,45.5,33.6,45.5z"/>
		<path fill="#6F6F6F" d="M45.5,29.7c-0.2,0-0.4,0-0.6-0.1c-0.6-1-0.8-2-1.2-3.1c0-0.2,0-0.4,0.1-0.6c0-0.3,0-0.5,0.1-0.8
			c0.9,1.4,1.3,2.9,1.8,4.5C45.6,29.6,45.5,29.6,45.5,29.7z"/>
		<path fill="#E5E5E5" d="M43.8,25.9c0,0.2,0,0.4,0.1,0.6c0.1,0.7,0.3,1.3,0.3,2c0,0.5,0.3,0.8,0.5,1.1c0.1,1.5,0.3,3,0,4.5
			c-0.4,2.3-1.3,4.3-2.7,6.1c-1.7,2.1-3.9,3.4-6.5,4.2c-0.6,0.2-1.3,0.3-1.9,0.3c-0.1-0.1-0.2-0.1-0.2-0.3c-0.1-0.3-0.1-0.7,0.1-1
			c0.3-0.3,0.6-0.4,1-0.5c5.1-1,8.7-5.4,8.7-10.6c0-5-2.9-9-7.6-10.7c-0.8-0.3-1.5-0.2-2.2,0.1c-0.2-0.2-0.2-0.5-0.2-0.8
			c0-0.6,0.1-1.1,0.4-1.6l0.1,0c3.9,0.5,7,2.5,9.2,5.8C43.2,25.4,43.5,25.7,43.8,25.9z"/>
		<path fill="#747474" d="M33.6,43.4c0,0.3,0,0.7-0.1,1c-0.8,0.5-1.7,0.3-2.6,0.2c-5.9-0.4-11.1-6-11.2-11.9
			c-0.1-5.7,2.5-9.7,7.5-12.1c1.5-0.7,3-1,4.7-1c0.6,0,1.2,0.2,1.6-0.3c0.1,0,0.1,0,0.2,0c-0.1,0.6-0.1,1.1-0.2,1.7
			c-0.4,0.4-0.9,0.3-1.4,0.3c-5.7,0-10.5,4.4-10.9,10c-0.4,6.1,3.7,11.2,9.6,11.9c0.8,0.1,1.7-0.1,2.5,0.2
			C33.5,43.3,33.5,43.4,33.6,43.4z"/>
		<path fill="#717272" d="M33.5,19.3c0,0.8-0.6,0.6-1,0.6c-2.6-0.1-5,0.6-7.2,2c-6.7,4.6-7.4,14.1-1.3,19.5c2.7,2.4,5.9,3.3,9.4,3
			c0,0.1,0,0.1,0.1,0.2c0,0.1,0,0.3-0.1,0.4c-2,0.5-3.9,0-5.8-0.7c-4.6-1.7-7.4-5.1-8.3-9.8c-1.3-6.9,2.9-13.7,10.5-15.2
			C31.1,19.2,32.3,18.8,33.5,19.3z"/>
		<path fill="#717272" d="M44.7,29.7c-0.7,0.1-0.9-0.2-0.8-0.9c0.1-0.7,0-1.5,0-2.2c0.5,1,0.9,1.9,1,3
			C44.8,29.6,44.7,29.6,44.7,29.7z"/>
		<path fill="#E9E9E9" d="M33.6,21.8c0.1-0.6,0.5-0.8,1.1-0.6c3.2,0.7,5.5,2.5,7.2,5.3c1.1,1.7,1.6,3.7,1.6,5.6
			c0,2.6-0.8,5.1-2.5,7.2c-1.9,2.3-4.4,3.8-7.5,4.1l-0.1,0c-0.2-0.2-0.2-0.5-0.2-0.8c0-0.2,0.1-0.3,0.2-0.5c0.6-0.5,1.3-0.5,2-0.7
			c4.2-1.5,6.6-5,6.6-9.3c0-4.3-2.4-7.7-6.6-9.2c-0.6-0.2-1.3-0.3-1.8-0.6c-0.1-0.1-0.1-0.2-0.2-0.3C33.4,22,33.5,21.9,33.6,21.8z"
			/>
		<path fill="#777777" d="M33.5,42.6c0,0.3,0,0.6,0,0.8c-2.7,0.1-5.2-0.3-7.5-1.8c-6.1-4.2-6.8-12.7-1.4-17.7
			c2.5-2.3,5.6-3.1,8.9-2.9c0,0.3,0,0.6,0.1,0.8c0,0.1,0,0.1-0.1,0.2c-0.4,0.4-0.9,0.3-1.4,0.3c-5.5,0.1-10,4.8-9.8,10.3
			c0.1,2.3,1,4.4,2.5,6.2c0.1,0.4,0.3,0.7,0.7,0.9c2,2,4.5,2.7,7.2,2.8C32.9,42.5,33.2,42.3,33.5,42.6z"/>
		<path fill="#ECECEC" d="M33.6,22.2c4.8,0.8,8.1,4.2,8.6,8.7c0.7,5.5-3.2,10.1-7.7,11c-0.3,0.1-0.6,0.1-0.9,0.2
			c-0.1-0.1-0.2-0.1-0.2-0.3c-0.1-0.3-0.1-0.7,0.1-1c1.2-0.5,2.5-0.8,3.6-1.6c2.8-2.1,4.2-4.8,3.7-8.3c-0.5-3.7-2.7-6.1-6.3-7.3
			c-0.4-0.1-0.8-0.1-1.1-0.4c-0.1-0.2-0.2-0.4-0.2-0.6C33.3,22.6,33.4,22.4,33.6,22.2z"/>
		<path fill="#7A7979" d="M33.6,22.2c0,0.2,0,0.4-0.1,0.6c-0.4,0.4-1,0.3-1.5,0.3c-4.5-0.4-9.3,4.4-9,9c0.1,2.1,0.5,4,1.8,5.6
			c0.1,0.4,0.2,0.8-0.2,1.2c-2.4-2.2-3.3-6.8-2.1-10.1c1.5-4,5.5-7.2,10.9-6.8C33.5,22.1,33.6,22.2,33.6,22.2z"/>
		<path fill="#797879" d="M33.5,42c0,0.1,0,0.1,0.1,0.2c0,0.1,0,0.3-0.1,0.4c-3,0.5-5.5-0.6-7.9-2.2c-0.2-0.1-0.3-0.3-0.3-0.6
			c0.3-0.3,0.6-0.3,1-0.2c1.7,1.5,3.7,2.1,5.8,2.1C32.6,41.7,33.1,41.6,33.5,42z"/>
		<path fill="#EDEDED" d="M26.3,39.8c-0.3,0-0.7,0-1,0c-0.7,0.1-0.6-0.4-0.7-0.9c0-0.4,0-0.8,0-1.2c-0.1-0.2-0.2-0.4,0-0.6
			c0.2-0.2,0.5-0.1,0.7,0c0.8,0.6,1.4,1.3,2,2c0.2,0.2,0.3,0.5,0,0.7C27,40,26.6,40,26.3,39.8z"/>
		<path fill="#F0EFEF" d="M33.6,23.5c2.4,0.1,4.2,1.3,5.6,3.1c3.1,3.8,2.6,9-1,12.4c-1.3,1.2-2.7,2-4.6,2.1
			c-0.1-0.1-0.2-0.1-0.2-0.3c-0.1-0.3-0.1-0.5,0.1-0.8c0.2-0.3,0.6-0.4,1-0.5c3.5-1.1,5.4-4,5.3-7.8c-0.1-3.1-2.4-5.8-5.7-6.7
			c-0.1,0-0.3-0.1-0.4-0.1c-0.1-0.1-0.1-0.2-0.2-0.3c-0.1-0.3-0.1-0.5,0-0.8C33.4,23.6,33.5,23.5,33.6,23.5z"/>
		<path fill="#7B7B7B" d="M33.6,23.5c0,0.1,0,0.1-0.1,0.2c-0.4,0.4-1,0.3-1.5,0.3c-6.3,0-10,6.7-7.2,12.1c0.1,0.4,0.1,0.7-0.1,1
			c0,0.2,0,0.4-0.1,0.6c-1.2-0.9-1.5-2.3-1.8-3.7c-0.9-5.7,2.7-10.1,7.6-11.1c1-0.2,2,0,3,0C33.5,23,33.6,23.3,33.6,23.5z"/>
		<path fill="#7B7B7B" d="M33.5,40.7c0,0.1,0,0.1,0.1,0.2c0,0.3,0,0.7-0.1,1c-2.3,0.1-4.6-0.2-6.5-1.5c-0.3-0.2-0.6-0.3-0.6-0.7
			c0.3,0,0.7,0,1-0.1c0.3-0.2,0.7-0.2,1-0.1c1.1,0.6,2.2,0.9,3.4,0.9C32.4,40.5,33,40.3,33.5,40.7z"/>
		<path fill="#F1F0F0" d="M28.4,39.8c-0.3,0-0.7,0-1-0.1c-0.7-1.1-1.5-2-2.6-2.6c0-0.3,0-0.7-0.1-1c-0.2-0.4-0.3-0.9-0.1-1.3
			c0.5-0.5,0.7-0.1,0.9,0.3c0.9,1.8,2.2,3.1,3.9,4c0.4,0.2,0.8,0.4,0.3,0.9C29.3,40.1,28.8,39.9,28.4,39.8z"/>
		<path fill="#F3F3F3" d="M29.8,39.7c-0.1-0.4-0.4-0.5-0.7-0.6c-1.7-0.8-3-2-3.8-3.8c-0.1-0.3-0.2-0.7-0.6-0.7
			c-0.2-0.2-0.3-0.4-0.3-0.7c-0.1-1.2-0.1-2.4,0-3.6c0-0.3,0.1-0.5,0.3-0.7c0.5-0.3,1-0.2,1.5-0.2c0.2,0,0.3,0.1,0.5,0.2
			c0.4,0.4,0.1,0.8,0,1.3c-1,3.3,1.6,6.9,5.4,7.2c2,0.1,4.4-1.4,5.3-3.4c0.9-2,0.5-4.4-0.9-6c-0.8-1-2-1.5-3.1-2
			c-0.1-0.3-0.2-0.5-0.2-0.8c0-0.4,0-0.7,0.3-1c2.5,0.1,5.3,2.5,6.1,5.3c1.2,4.4-1.3,8.6-5.7,9.7c-0.1,0-0.2,0.1-0.4,0.2
			C32.3,40,31,40.3,29.8,39.7z"/>
		<path fill="#7E7E7E" d="M24.9,29.6c-0.4,0.6-0.2,1.4-0.2,2c0,1,0,2,0,2.9c0,0.5,0,1-0.1,1.4c-0.8-0.6-0.9-1.6-1-2.4
			c-0.6-5,2.2-8.9,6.9-9.9c0.9-0.2,1.9-0.1,2.9-0.1c0,0.3,0,0.5,0,0.8c-0.2,0.3-0.6,0.2-0.9,0.2c-3.2,0-5.7,1.3-7.2,4.2
			C25.3,29.2,25.2,29.5,24.9,29.6z"/>
		<path fill="#808081" d="M24.9,29.6c1.2-3.4,3.8-4.9,7.2-5.3c0.5-0.1,0.9,0.1,1.4,0.1c0,0.1,0,0.1,0.1,0.2c0,0.3,0,0.7-0.1,1
			C33.2,26,32.8,26,32.5,26c-2.6-0.1-4.6,1-5.9,3.3c-0.1,0.1-0.2,0.2-0.3,0.3C25.9,29.6,25.4,29.6,24.9,29.6z"/>
		<path fill="#7E7E7E" d="M29.8,39.7c0.9,0,1.9,0,2.8,0c0.3,0,0.7-0.1,0.9,0.2c0,0.3,0,0.6-0.1,0.8c-1.4,0-2.8,0.1-4.1-0.4
			c-0.4-0.1-0.8-0.2-1-0.6C28.9,39.7,29.4,39.7,29.8,39.7z"/>
		<path fill="#F7F7F8" d="M33.6,26.5c1.7,0,4,2.2,4.5,4.4c0.8,3.7-2,7.2-5.8,7.3c-2.8,0.1-5.2-1.9-5.9-4.9c-0.3-1.3,0.1-2.5,0.4-3.7
			c0.3-0.4,0.8-0.3,1.2-0.3c0.5,0,1.1,0,1.6,0c0.2,0,0.3,0.1,0.5,0.2c0.3,0.6-0.2,1-0.4,1.5c-0.4,1.1-0.4,2.1,0.4,3
			c0.8,0.9,1.7,1.4,2.9,1c1.1-0.3,1.9-1.1,2.2-2.2c0.2-1-0.1-1.8-0.8-2.5c-0.3-0.3-0.7-0.5-0.9-0.9c-0.1-0.3-0.1-0.5-0.1-0.8
			c0-0.5,0-0.9,0-1.4C33.3,26.9,33.4,26.7,33.6,26.5z"/>
		<path fill="#838383" d="M28,29.6c-0.4,0-0.8,0-1.2,0.1c-0.1,0-0.3,0-0.4-0.1c0.4-1.8,1.8-2.7,3.3-3.5c1.2-0.6,2.5-0.4,3.8-0.4
			c0,0.3,0,0.6,0.1,0.8c0,0.2,0,0.4-0.1,0.6c-0.3,0.3-0.6,0.3-0.9,0.3c-1.6-0.1-2.9,0.4-4,1.7C28.4,29.3,28.2,29.4,28,29.6z"/>
		<path fill="#FFFFFF" d="M33.6,29.4c1.4,0.8,2.1,2.1,1.7,3.5c-0.4,1.5-1.7,2.6-3.2,2.5c-1.4,0-2.7-1.1-3-2.6
			c-0.3-1.2,0.4-2.2,1-3.1C31.2,29,32.4,29.3,33.6,29.4z"/>
		<path fill="#858585" d="M28,29.6c0.8-1.5,2.1-2.3,3.8-2.4c0.6,0,1.2,0,1.7,0c0,0.5,0,1,0,1.4c-0.1,0.1-0.3,0.2-0.5,0.2
			c-1.3-0.3-2.3,0.3-3.4,0.8C29.1,29.6,28.5,29.6,28,29.6z"/>
		<path fill="#888788" d="M29.6,29.6c1.1-1.2,2.4-1.3,3.9-1c0,0.3,0,0.6,0.1,0.8c-1.2,0.5-2.4,0.1-3.5,0.2
			C29.9,29.6,29.8,29.6,29.6,29.6z"/>
	</g>
</g>
</svg>
